# xmcd
#
# Track frame offsets: 
#        150
#        17389
#        33280
#        48614
#        64039
#        82393
#        102280
#        121020
#        139721
#        155622
#        173792
#        191564
#        206845
#        222234
#        238141
#        255361
#        274210
#        293475
#        312257
#        328487
#
# Disc length: 4581 seconds
#
# Revision: 3
# Processed by: cddbd v1.5.1PL2 Copyright (c) Steve Scherf et al.
# Submitted via: ExactAudioCopy v0.95b3
#
DISCID=2811e314
DTITLE=Various Artist - HP200626
DYEAR=2006
DGENRE=Top 40
TTITLE0=Jewel - Good Day [Radio Version]
TTITLE1=Katharine McPhee - Somewhere Over The Rainbow
TTITLE2=John Mayer - Waiting On The World To Change [Album Version]
TTITLE3=Jessica Simpson - A Public Affair [Album Version]
TTITLE4=Frankie J f Chamillionaire - That Girl
TTITLE5=Ciara f Chamillionaire - Get Up [Main]
TTITLE6=Sean Paul f Keyshia Cole - (When You Gonna) Give It Up To Me
TTITLE7=Bobby Valentino - Wreck [Main]
TTITLE8=Yung Joc - I Know You See It [Radio]
TTITLE9=Mila J f Marques Houston - Good Lookin' Out [Radio Edit]
TTITLE10=Shareefa f Ludacris - Need A Boss [Clean]
TTITLE11=Jo Dee Messina - It's Too Late To Worry
TTITLE12=Jason Aldean - Amarillo Sky
TTITLE13=George Strait - Give It Away
TTITLE14=Tom Petty - Saving Grace
TTITLE15=Disturbed - Land Of Confusion [Version 2]
TTITLE16=Crossfade - Invincible
TTITLE17=Lake Street Project - Forever [Bobby Blanco and Miki Moto Rad
TTITLE17=io Edit]
TTITLE18=Paris Hilton - Stars Are Blind [Tracey Does Paris Radio]
TTITLE19=Jessie Daniels - Everyday
EXTD=
EXTT0=
EXTT1=
EXTT2=
EXTT3=
EXTT4=
EXTT5=
EXTT6=
EXTT7=
EXTT8=
EXTT9=
EXTT10=
EXTT11=
EXTT12=
EXTT13=
EXTT14=
EXTT15=
EXTT16=
EXTT17=
EXTT18=
EXTT19=
PLAYORDER=
